<svg xmlns="http://www.w3.org/2000/svg" data-name="Layer 1" viewBox="0 0 512 512"><path fill="#676e87" d="M483.5,204.47l-.35,62.99L482,474.5a29.998,29.998,0,0,1-30,30H60a29.998,29.998,0,0,1-30-30l1.15-207.03.35-63Z"/><path fill="#ffe966" d="M476.75,53.51,380.43959,94.071l-65.4329,12.557L283.6712,134.8249,186.9,175.58l-84.9568,20.77411L60.17993,228.94,40,181.01a7.97618,7.97618,0,0,1,4.26-10.46l43.53965-3.33974L135.97,131.92l96.76448-40.7503,41.15675-2.33229,55.61232-38.41995L425.81006,9.86a29.99579,29.99579,0,0,1,39.29,16Z"/><path fill="#4a4f60" d="M186.9,175.58,60.17993,228.94,40,181.01a7.97618,7.97618,0,0,1,4.26-10.46l91.71-38.63Z"/><polygon fill="#4a4f60" points="329.504 50.419 380.44 94.071 283.671 134.824 232.735 91.172 329.504 50.419"/><polygon fill="#595f74" points="483.5 219.47 483.15 282.46 483.14 297.47 31.15 282.47 31.5 219.47 483.5 219.47"/><polygon fill="#ffe966" points="483.5 204.47 483.15 267.46 483.14 267.47 349 267.47 265.265 252.47 244 267.47 139 267.47 110.98 252.47 31.15 267.47 31.5 204.47 107.192 219.47 169 204.47 274 204.47 342.969 219.47 379 204.47 483.5 204.47"/><polyline fill="#4a4f60" points="349 267.469 379 204.469 274 204.469 244 267.469"/><polyline fill="#4a4f60" points="139.443 267.469 169.443 204.469 64.443 204.469 34.443 267.469"/><path fill="#cecece" d="M49.01746,176.15055,112.96417,250.972a10,10,0,0,1-7.60189,16.497H31.15l.26557-84.85273A10,10,0,0,1,49.01746,176.15055Z"/><path fill="#272a33" d="M488.81787,199.18066A7.5002,7.5002,0,0,0,483.5,196.96924H155.43127L479.65869,60.42432a7.50057,7.50057,0,0,0,4.001-9.82325L472.01611,22.95361A37.50025,37.50025,0,0,0,422.90088,2.94727L37.28076,165.34717a7.52251,7.52251,0,0,0-1.2041.64764c-.23169.07471-.46436.14124-.69482.22589a17.34972,17.34972,0,0,0-11.46631,16.37207l-.26563,84.83387v.00109L22.5,474.5A37.54227,37.54227,0,0,0,60,512H452a37.53348,37.53348,0,0,0,37.5-37.4585L491,204.51074A7.49963,7.49963,0,0,0,488.81787,199.18066ZM367.12158,211.96924l-22.85718,48h-88.386l22.85718-48Zm-105,0-22.85718,48h-88.386l22.85718-48Zm-105,0-22.85718,48H122.70178a17.31147,17.31147,0,0,0-4.03576-13.86963L89.49634,211.96924h28.79455l.01331.001.01977-.001ZM428.72314,16.77148a22.49948,22.49948,0,0,1,29.46875,12.00391l8.73291,20.73584-85.124,35.849-38.2019-32.73956ZM328.14319,59.1297l38.2019,32.7395L285.032,126.11328l-38.2019-32.73944Zm-96.7688,40.75317,38.20178,32.73938-81.31311,34.24414-38.20154-32.7395ZM134.606,140.63593l38.20141,32.73944L116.7832,196.96924H76.67651l-20.071-23.48432ZM38.91553,182.64014a2.50013,2.50013,0,0,1,4.40039-1.61719l63.94726,74.82226a2.50027,2.50027,0,0,1-1.90088,4.124h-66.689ZM136.06348,497H60a22.51646,22.51646,0,0,1-22.5-22.4585l.77515-139.57226H137.4364Zm225,0H151.0636l1.37292-162.03076H362.4364ZM474.5,474.5A22.52523,22.52523,0,0,1,452,497H376.0636l1.37292-162.03076h97.83863Zm.85852-154.53076h-437l.24988-45H138.959c.01185,0,.02369.00195.03565.00195l.02783-.00195H243.959c.01185,0,.02369.00195.03565.00195l.02783-.00195H348.959c.01185,0,.02369.00195.03565.00195l.02783-.00195H475.60852Zm.33337-60H360.87842l22.85718-48h92.2229ZM63,228.5a7.5,7.5,0,1,0,7.5,7.5A7.5,7.5,0,0,0,63,228.5Z"/></svg>