<svg xmlns="http://www.w3.org/2000/svg" data-name="Layer 1" viewBox="0 0 512 512"><path fill="#66c1ff" d="M504.5,225.83008V395.16992a10.001,10.001,0,0,1-14.03,9.16016l-48.77-21.46L379.5,355.5v-90l110.97-48.83008A10.001,10.001,0,0,1,504.5,225.83008Z"/><polygon fill="#4eb7ff" points="441.7 382.87 379.5 355.5 379.5 265.5 441.7 382.87"/><rect width="260" height="372" x="63.5" y="124.5" fill="#66c1ff" rx="30" transform="rotate(90 193.5 310.5)"/><circle cx="208.5" cy="310.5" r="98" fill="#4eb7ff"/><circle cx="193.5" cy="310.5" r="98" fill="#63ea86"/><path fill="#3ce568" d="M193.5,212.5a98.77614,98.77614,0,0,0-15,1.1416,98.01536,98.01536,0,0,1,0,193.7168A98.00607,98.00607,0,1,0,193.5,212.5Z"/><path fill="#fff" d="M180.65545,262.1346l59.81734,40.05633a10,10,0,0,1,0,16.61814L180.65545,358.8654a10,10,0,0,1-15.56412-8.30907V270.44367A10,10,0,0,1,180.65545,262.1346Z"/><path fill="#272a33" d="M251.36621,82.18457a7.5,7.5,0,0,0,5.30322-12.80322,73.1533,73.1533,0,0,0-103.33886,0A7.49989,7.49989,0,1,0,163.937,79.98779a58.14642,58.14642,0,0,1,82.126,0A7.47665,7.47665,0,0,0,251.36621,82.18457Zm-64.0498,21.22852a7.49989,7.49989,0,0,0,10.60644,10.60644,10.02,10.02,0,0,1,14.1543,0,7.49989,7.49989,0,0,0,10.60644-10.60644A25.0363,25.0363,0,0,0,187.31641,103.41309ZM130.01074,46.06152a106.172,106.172,0,0,1,149.97852,0A7.49989,7.49989,0,1,0,290.5957,35.45508a121.18659,121.18659,0,0,0-171.1914,0,7.49989,7.49989,0,1,0,10.60644,10.60644ZM244.646,295.96l-59.81739-40.05713a17.5,17.5,0,0,0-27.2373,14.54053v80.11328a17.49354,17.49354,0,0,0,27.2373,14.54L244.645,325.041a17.49888,17.49888,0,0,0,.001-29.08106Zm-8.34668,16.61719-59.81739,40.05664a2.49979,2.49979,0,0,1-3.89062-2.07715V270.44336a2.41029,2.41029,0,0,1,1.32226-2.20508,2.57286,2.57286,0,0,1,1.19678-.31055,2.42876,2.42876,0,0,1,1.37158.43848l59.81836,40.05762a2.499,2.499,0,0,1-.001,4.15332ZM193.5,205A105.5,105.5,0,1,0,299,310.5,105.61955,105.61955,0,0,0,193.5,205Zm0,196A90.5,90.5,0,1,1,284,310.5,90.6022,90.6022,0,0,1,193.5,401ZM504.06348,211.16943a17.44463,17.44463,0,0,0-16.61133-1.3623L387,254.00586V210.5A37.54227,37.54227,0,0,0,349.5,173H37.5A37.54227,37.54227,0,0,0,0,210.5v200A37.54227,37.54227,0,0,0,37.5,448h312A37.54227,37.54227,0,0,0,387,410.5V366.99414l100.45166,44.19922A17.50051,17.50051,0,0,0,512,395.1748V225.8252A17.44294,17.44294,0,0,0,504.06348,211.16943ZM372,265.57764c.00024.01709-.00024.03442,0,.05175v89.74122c-.00024.01733.00024.03466,0,.05175V410.5A22.52554,22.52554,0,0,1,349.5,433H37.5A22.52554,22.52554,0,0,1,15,410.5v-200A22.52523,22.52523,0,0,1,37.5,188h312A22.52523,22.52523,0,0,1,372,210.5ZM497,395.1748a2.49972,2.49972,0,0,1-3.50684,2.28809L387,350.60571V270.39429l106.49316-46.85767A2.50022,2.50022,0,0,1,497,225.8252Z"/></svg>