<svg xmlns="http://www.w3.org/2000/svg" data-name="Layer 1" viewBox="0 0 512 512"><rect width="497" height="497" x="7.5" y="7.5" fill="#fff" rx="30"/><path fill="#676e87" d="M504.5,37.5v60H7.5v-60a29.998,29.998,0,0,1,30-30h437A29.998,29.998,0,0,1,504.5,37.5Z"/><circle cx="154" cy="437" r="22.5" fill="#676e87"/><path fill="#dedede" d="M218.74169,228.18149c-3.85414-12.077-16.92471-57.98591,4.84987-109.12629,18.64494-43.78942,51.924-65.78351,63.85922-72.91187-2.98039,7.57916-20.68212,17.95171-19.85018,30.06958.51755,7.53816,17.31255,14.44192,19.91558,20.69936,11.27979,27.11558,37.73248,42.09472,41.16006,43.96812,9.67126,6.03633,45.30253,29.86771,59.00905,76.79263,3.35286,11.479,17.80681,66.835-19.40042,113.97633a121.18964,121.18964,0,0,1-106.7012,45.2471c-58.42975-6.05615-95.72831-56.07757-107.87714-99.40612-17.726-63.22,17.347-115.24654,22.69166-122.89908-.76383,4.90437-4.15849,29.96818,12.669,51.91165A66.58939,66.58939,0,0,0,218.74169,228.18149Z"/><path fill="#595f74" d="M287.77,97.5h-52.9a159.33489,159.33489,0,0,1,52.58-51.36,69.21526,69.21526,0,0,0-4.84985,30.07A65.16557,65.16557,0,0,0,287.77,97.5Z"/><path fill="#ff8e66" d="M203.74169,228.18149c-3.85414-12.077-16.92471-57.98591,4.84987-109.12629,18.64494-43.78942,51.924-65.78351,63.85922-72.91187a69.156,69.156,0,0,0-4.85018,30.06958c2.76026,40.20356,41.85709,62.36175,46.07564,64.66748,9.67126,6.03633,45.30253,29.86771,59.00905,76.79263,3.35286,11.479,17.80681,66.835-19.40042,113.97633a121.18964,121.18964,0,0,1-106.7012,45.2471c-58.42975-6.05615-95.72831-56.07757-107.87714-99.40612-17.726-63.22,17.347-115.24654,22.69166-122.89908-.76383,4.90437-4.15849,29.96818,12.669,51.91165A66.58939,66.58939,0,0,0,203.74169,228.18149Z"/><path fill="#ff7c4e" d="M372.6853,217.6731c-13.70654-46.925-49.33777-70.75635-59.009-76.79273-4.21851-2.30566-43.31543-24.46387-46.07568-64.66748a69.15669,69.15669,0,0,1,4.85022-30.06958,159.4296,159.4296,0,0,0-34.93616,28.39026c.02368.55725.04724,1.11438.08594,1.67932,2.76025,40.20361,41.85717,62.36182,46.07568,64.66748,9.67126,6.03638,45.30249,29.86768,59.009,76.79273,3.35279,11.47888,17.80689,66.835-19.40039,113.97631a121.39764,121.39764,0,0,1-79.69507,44.89307c.99219.12988,1.98926.24976,2.9939.354a121.19019,121.19019,0,0,0,106.70117-45.24707C390.49219,284.50806,376.03809,229.152,372.6853,217.6731Z"/><path fill="#ffb74e" d="M312.92759,321.37155c-3.37485,28.53727-28.46049,59.569-56.14167,56.14151-23.32546-2.88813-43.50425-29.62853-39.05379-46.22767,3.95662-14.75752,25.08564-12.93727,38.59927-32.44993,10.60043-15.30632,10.10163-34.47886,7.4355-49.61288C296.44626,260.16575,316.51917,291.00164,312.92759,321.37155Z"/><path fill="#ffae36" d="M263.76685,249.22266a96.45617,96.45617,0,0,1,1.55627,20.39624c13.08069,14.28662,19.80994,33.10351,17.60449,51.75268-2.56213,21.66467-17.64148,44.75147-36.86535,53.12256a38.48665,38.48665,0,0,0,10.72363,3.01892c27.68115,3.42749,52.76684-27.60425,56.14172-56.14148C316.51917,291.00171,296.44629,260.16577,263.76685,249.22266Z"/><path fill="#272a33" d="M154,407a30.054,30.054,0,0,0-29.05066,22.5H52.5a7.5,7.5,0,0,0,0,15h72.44934a30.00424,30.00424,0,0,0,58.10132,0H459.5a7.5,7.5,0,0,0,0-15H183.05066A30.054,30.054,0,0,0,154,407Zm0,45a15,15,0,1,1,15-15A15.017,15.017,0,0,1,154,452ZM474.5,0H37.5A37.54227,37.54227,0,0,0,0,37.5v437A37.54227,37.54227,0,0,0,37.5,512h437A37.54227,37.54227,0,0,0,512,474.5V37.5A37.54227,37.54227,0,0,0,474.5,0ZM497,474.5A22.52523,22.52523,0,0,1,474.5,497H37.5A22.52523,22.52523,0,0,1,15,474.5V105H206.9397q-2.76856,5.33094-5.24829,11.11719c-16.44483,38.62207-13.9712,74.88183-9.39112,97.63183A56.91245,56.91245,0,0,1,180.019,201.939c-14.19433-18.50927-12.16894-40.03662-11.21045-46.19384a7.49994,7.49994,0,0,0-13.55957-5.44824c-10.04248,14.37988-41.43506,66.19482-23.76416,129.21826,13.36719,47.67236,53.90137,98.57861,114.3252,104.84131q5.1762.53649,10.34985.62744a42.11685,42.11685,0,0,0,4.88257.292,42.80044,42.80044,0,0,0,7.4502-.66443,129.13488,129.13488,0,0,0,90.6792-48.31555c37.90966-48.03125,25.438-104.54834,20.7124-120.72559-13.60791-46.58886-48.05762-72.20263-62.23682-81.05224q-.18384-.115-.37451-.21875c-2.77686-1.51783-20.34717-11.59375-31.959-29.29932H497ZM260.11816,76.72656c2.92481,42.59619,41.4961,66.07178,49.76221,70.626,12.82715,8.03955,43.501,30.98047,55.60547,72.42334,4.2168,14.43555,15.374,64.83057-18.08838,107.22705a113.2109,113.2109,0,0,1-42.56323,33.0354c8.26721-11.08936,13.986-24.631,15.54175-37.78589,4.085-34.54736-18.72071-68.25195-54.22754-80.1416a7.5,7.5,0,0,0-9.76758,8.41309c3.26758,18.55029,1.17676,33.36767-6.21484,44.0415-5.667,8.18262-12.99219,11.939-20.07618,15.57129-8.23779,4.22461-16.75634,8.59277-19.60205,19.20654-2.40429,8.96729.2583,20.10938,7.30469,30.56885.61133.90747,1.24976,1.79419,1.90674,2.66455-38.1897-15.3717-63.98071-52.19336-73.771-87.11133-10.62353-37.88721-.97363-71.959,8.83155-93.667a71.88633,71.88633,0,0,0,13.356,29.26855,73.87957,73.87957,0,0,0,33.022,24.148,7.49976,7.49976,0,0,0,9.749-9.31347c-5.10547-15.999-14.87695-58.15088,4.60547-103.90821a148.95016,148.95016,0,0,1,44.91064-58.41943A73.19789,73.19789,0,0,0,260.11816,76.72656Zm12.61329,184.56787c22.17675,12.16895,35.55273,35.48,32.748,59.19629-1.8501,15.646-10.97412,31.97168-23.24414,41.59229a38.25176,38.25176,0,0,1-15.82434,7.64453q-4.55731.32226-9.14734.271c-9.80859-1.38721-20.37268-8.58375-27.03076-18.46729-4.48486-6.65674-6.499-13.67041-5.25684-18.30371,1.07276-4.00049,4.83838-6.0918,11.9585-9.74316,7.91016-4.05665,17.75488-9.105,25.563-20.37891C270.22607,291.94531,273.65137,277.92139,272.73145,261.29443ZM497,90H277.96069A57.02589,57.02589,0,0,1,275.083,75.69922a61.37339,61.37339,0,0,1,4.34717-26.811,7.49974,7.49974,0,0,0-10.8252-9.18359A167.66262,167.66262,0,0,0,215.802,90H15V37.5A22.52523,22.52523,0,0,1,37.5,15h437A22.52523,22.52523,0,0,1,497,37.5ZM54.627,46.92712a7.5,7.5,0,1,0,7.5,7.5A7.5,7.5,0,0,0,54.627,46.92712Zm60,0a7.5,7.5,0,1,0,7.5,7.5A7.5,7.5,0,0,0,114.627,46.92712Zm-30,0a7.5,7.5,0,1,0,7.5,7.5A7.5,7.5,0,0,0,84.62695,46.92712Z"/></svg>