<svg xmlns="http://www.w3.org/2000/svg" data-name="Layer 1" viewBox="0 0 512 512"><path fill="#ff7070" d="M504.5,171.33v169.34a10.00093,10.00093,0,0,1-14.03,9.16L409.5,314.2,379.5,301V211l30-13.19995,80.97-35.63013A10.001,10.001,0,0,1,504.5,171.33Z"/><polygon fill="#ff4e4e" points="399.489 202.205 414.768 316.518 379.5 301 379.5 211 399.489 202.205"/><rect width="260" height="372" x="63.5" y="70" fill="#ff7070" rx="30" transform="rotate(90 193.5 256)"/><path fill="#ff4e4e" d="M209.13965,360.19531A104.11494,104.11494,0,1,1,305.144,296.56006a7.50026,7.50026,0,1,1-13.81543-5.84375,89.31408,89.31408,0,1,0-10.98681,19.01562,7.49986,7.49986,0,1,1,11.96582,9.04493A103.43553,103.43553,0,0,1,209.13965,360.19531Z"/><path fill="#ff4e4e" d="M209.14648,273.71533a7.49379,7.49379,0,0,1-6.30175-3.42383l-30.64258-47.3081a7.49994,7.49994,0,1,1,12.58984-8.1543l30.64258,47.30811a7.50141,7.50141,0,0,1-6.28809,11.57812Z"/><path fill="#ff4e4e" d="M241.67578 273.71436H209.13965a7.5 7.5 0 0 1 0-15h32.53613a7.5 7.5 0 0 1 0 15zM298.20068 301.294a7.49934 7.49934 0 0 1-6.59912-3.936l-11.8789-21.99512a7.5 7.5 0 0 1 13.19824-7.12793l8.31494 15.396 15.39551-8.31494a7.5 7.5 0 0 1 7.12793 13.19824l-21.99463 11.87891A7.50059 7.50059 0 0 1 298.20068 301.294z"/><path fill="#272a33" d="M301.63135,275.31592l-5.71167,3.08484a104.24126,104.24126,0,1,0-18.61206,40.3761,7.49986,7.49986,0,1,0-11.96582-9.04493A89.20223,89.20223,0,1,1,283.33545,256a89.50188,89.50188,0,0,1-1.96021,18.63086l-3.45434-6.396a7.5,7.5,0,0,0-13.19824,7.12793l11.8789,21.99512a7.50006,7.50006,0,0,0,10.16309,3.03516l21.99463-11.87891a7.5,7.5,0,0,0-7.12793-13.19824ZM198.21753,258.71436,169.792,214.8291a7.49994,7.49994,0,1,0-12.58984,8.1543l30.64258,47.3081c.00879.01368.01977.025.02881.03858a7.51535,7.51535,0,0,0,.52148.70215c.04956.05908.10352.11242.15454.16967.13794.15455.28052.304.43091.44654.07861.07483.1582.14709.23974.218.14161.12353.28882.24011.4397.35278.07617.05676.14966.1167.22779.17029a7.48863,7.48863,0,0,0,.70507.4331c.03858.02075.07935.037.11841.057q.32154.16589.66016.30054c.07226.02868.14526.05358.2185.07995q.29664.10749.60474.19031c.07935.02124.158.04248.238.06128.2063.04809.41626.08569.6289.11645.07569.011.15064.02588.22681.03467a7.517,7.517,0,0,0,.79956.04883c.01978.00024.03906.00366.05859.00366l.01392-.001h32.51538a7.5,7.5,0,0,0,0-15Zm305.846-102.04493a17.44617,17.44617,0,0,0-16.61133-1.3623L387,199.50623V156a37.54227,37.54227,0,0,0-37.5-37.5H37.5A37.54227,37.54227,0,0,0,0,156V356a37.54227,37.54227,0,0,0,37.5,37.5h312A37.54227,37.54227,0,0,0,387,356V312.49377l100.45215,44.1991A17.5,17.5,0,0,0,512,340.6748V171.3252A17.44294,17.44294,0,0,0,504.06348,156.66943ZM372,211.07727c.00024.01733-.00024.03455,0,.05188v89.7417c-.00024.01733.00024.03455,0,.05188V356a22.52523,22.52523,0,0,1-22.5,22.5H37.5A22.52523,22.52523,0,0,1,15,356V156a22.52523,22.52523,0,0,1,22.5-22.5h312A22.52523,22.52523,0,0,1,372,156ZM497,340.6748a2.50022,2.50022,0,0,1-3.50684,2.28858L387,296.1062V215.8938l106.49316-46.85718A2.50022,2.50022,0,0,1,497,171.3252Z"/></svg>