<svg xmlns="http://www.w3.org/2000/svg" data-name="Layer 1" viewBox="0 0 512 512"><rect width="497" height="497" x="7.5" y="7.5" fill="#fff" rx="30"/><path fill="#676e87" d="M504.5,37.5v60H7.5v-60a29.9982,29.9982,0,0,1,30-30h437A29.9982,29.9982,0,0,1,504.5,37.5Z"/><rect width="45" height="45" x="52.5" y="142.5" fill="#dedede" rx="7"/><rect width="45" height="45" x="52.5" y="232.5" fill="#dedede" rx="7"/><rect width="45" height="45" x="52.5" y="322.5" fill="#dedede" rx="7"/><rect width="45" height="45" x="52.5" y="412.5" fill="#dedede" rx="7"/><path fill="#eee" d="M474.5,257.59v86.81994a4.24377,4.24377,0,0,1-5.9502,3.88013l-4-1.76L421.49023,327.58v-53.16l47.05957-20.71A4.24375,4.24375,0,0,1,474.5,257.59Z"/><rect width="125.252" height="172.745" x="272.495" y="214.627" fill="#eee" rx="30" transform="rotate(90 335.121 301)"/><path fill="#63ea86" d="M459.5,242.59v86.81994a4.24377,4.24377,0,0,1-5.9502,3.88013l-4-1.76L406.49023,312.58v-53.16l47.05957-20.71A4.24375,4.24375,0,0,1,459.5,242.59Z"/><path fill="#3ce568" d="M453.5498,238.71,444.5,242.69263v86.615l5.0498,2.22241,4,1.76a4.24377,4.24377,0,0,0,5.9502-3.88013V242.59A4.24375,4.24375,0,0,0,453.5498,238.71Z"/><rect width="125.252" height="172.745" x="257.495" y="199.627" fill="#63ea86" rx="30" transform="rotate(90 320.121 286)"/><path fill="#3ce568" d="M376.49414,223.3739h-15a30.00016,30.00016,0,0,1,30,30v65.2522a30.00016,30.00016,0,0,1-30,30h15a30.00016,30.00016,0,0,0,30-30V253.3739A30.00016,30.00016,0,0,0,376.49414,223.3739Z"/><path fill="#fff" d="M310.16228,258.72113l37.01391,24.78615a3,3,0,0,1,0,4.98544l-37.01391,24.78615a3,3,0,0,1-4.66923-2.49272v-49.5723A3,3,0,0,1,310.16228,258.72113Z"/><path fill="#272a33" d="M144.627,262.5h54.23731a7.5,7.5,0,0,0,0-15H144.627a7.5,7.5,0,1,0,0,15Zm0-90H450.252a7.5,7.5,0,1,0,0-15H144.627a7.5,7.5,0,1,0,0,15ZM351.34863,277.27539,314.335,252.48926a10.49966,10.49966,0,0,0-16.3418,8.72461v49.57226a10.49635,10.49635,0,0,0,16.3418,8.72461l37.01367-24.78564a10.5,10.5,0,0,0,0-17.44971Zm-45.36035-12.32275.001.00048.00586.00391Zm7.00488,37.40429V269.64307L337.419,286ZM144.627,352.5H204.5a7.5,7.5,0,0,0,0-15H144.627a7.5,7.5,0,1,0,0,15Zm305.9043-120.65234-36.9165,16.2434a37.55172,37.55172,0,0,0-37.12061-32.217H263.749a37.54227,37.54227,0,0,0-37.5,37.5v65.252a37.54227,37.54227,0,0,0,37.5,37.5H376.49414a37.55162,37.55162,0,0,0,37.12061-32.217l36.91748,16.24389A11.74044,11.74044,0,0,0,467,329.40625v-86.8125a11.74038,11.74038,0,0,0-16.46875-10.74609Zm-51.53711,27.644c0,.01929-.00049.03833,0,.05737v52.90186c-.00049.019,0,.03808,0,.05737V318.626a22.52555,22.52555,0,0,1-22.5,22.5H263.749a22.52555,22.52555,0,0,1-22.5-22.5V253.374a22.52555,22.52555,0,0,1,22.5-22.5H376.49414a22.52555,22.52555,0,0,1,22.5,22.5ZM452,324.41113l-38.00586-16.7229V264.31177L452,247.58887ZM54.627,46.92712a7.5,7.5,0,1,0,7.5,7.5A7.5,7.5,0,0,0,54.627,46.92712Zm60,0a7.5,7.5,0,1,0,7.5,7.5A7.5,7.5,0,0,0,114.627,46.92712Zm-30,0a7.5,7.5,0,1,0,7.5,7.5A7.5,7.5,0,0,0,84.62695,46.92712ZM474.5,0H37.5A37.54227,37.54227,0,0,0,0,37.5v437A37.54227,37.54227,0,0,0,37.5,512h437A37.54227,37.54227,0,0,0,512,474.5V37.5A37.54227,37.54227,0,0,0,474.5,0ZM497,474.5A22.52554,22.52554,0,0,1,474.5,497H37.5A22.52554,22.52554,0,0,1,15,474.5V105H497ZM497,90H15V37.5A22.52554,22.52554,0,0,1,37.5,15h437A22.52554,22.52554,0,0,1,497,37.5ZM59.5,465h31A14.51669,14.51669,0,0,0,105,450.5v-31A14.51669,14.51669,0,0,0,90.5,405h-31A14.51669,14.51669,0,0,0,45,419.5v31A14.51669,14.51669,0,0,0,59.5,465Zm.5-45H90v30H60ZM144.627,442.5H459.5a7.5,7.5,0,0,0,0-15H144.627a7.5,7.5,0,1,0,0,15ZM59.5,195h31A14.51669,14.51669,0,0,0,105,180.5v-31A14.51669,14.51669,0,0,0,90.5,135h-31A14.51669,14.51669,0,0,0,45,149.5v31A14.51669,14.51669,0,0,0,59.5,195Zm.5-45H90v30H60Zm-.5,225h31A14.51669,14.51669,0,0,0,105,360.5v-31A14.51669,14.51669,0,0,0,90.5,315h-31A14.51669,14.51669,0,0,0,45,329.5v31A14.51669,14.51669,0,0,0,59.5,375Zm.5-45H90v30H60Zm-.5-45h31A14.51669,14.51669,0,0,0,105,270.5v-31A14.51669,14.51669,0,0,0,90.5,225h-31A14.51669,14.51669,0,0,0,45,239.5v31A14.51669,14.51669,0,0,0,59.5,285Zm.5-45H90v30H60Z"/></svg>